<?xml version="1.0" encoding="UTF-8"?>
<svg version="1.1" xmlns="http://www.w3.org/2000/svg" width="512" height="512">
<path d="M0 0 C4.92502359 2.2866181 7.39629043 5.27474929 10 10 C11.26178801 14.52380686 11.13409364 19.07935888 11.11352539 23.73754883 C11.11367142 24.60634674 11.11381744 25.47514465 11.1139679 26.37026978 C11.11327306 29.23254929 11.10550073 32.09476315 11.09765625 34.95703125 C11.09579055 36.94528671 11.09436736 38.93354262 11.09336853 40.92179871 C11.08955534 46.14799271 11.07973528 51.3741588 11.06866455 56.6003418 C11.05842467 61.93603132 11.05386539 67.27172536 11.04882812 72.60742188 C11.03811194 83.07162683 11.0210499 93.53581109 11 104 C11.78489304 104.30638397 12.56978607 104.61276794 13.37846375 104.92843628 C15.75274759 105.89893456 17.6561284 106.94937404 19.76953125 108.3828125 C20.43017578 108.82753906 21.09082031 109.27226563 21.77148438 109.73046875 C22.44501953 110.19066406 23.11855469 110.65085937 23.8125 111.125 C24.85180664 111.82689453 24.85180664 111.82689453 25.91210938 112.54296875 C27.61091105 113.69112437 29.30584864 114.84499367 31 116 C31.11214844 115.28199219 31.22429687 114.56398438 31.33984375 113.82421875 C34.71061917 99.40368249 48.37387932 85.11683997 60.4375 77.25 C62.27914894 76.14552079 64.13304057 75.06113506 66 74 C66.80179688 73.53722656 67.60359375 73.07445313 68.4296875 72.59765625 C85.76494637 63.24798384 107.60418198 61.14260952 126.640625 65.96875 C150.53432536 73.30356034 167.55520095 87.71946553 179.4453125 109.66796875 C180.33539079 111.42634019 181.1763856 113.20953391 182 115 C182.70125 114.55269531 183.4025 114.10539062 184.125 113.64453125 C185.07375 113.03996094 186.0225 112.43539062 187 111.8125 C187.928125 111.22082031 188.85625 110.62914063 189.8125 110.01953125 C193 108 193 108 195.02835464 107.02577114 C199.25352448 104.90527749 199.25352448 104.90527749 201.73003387 101.07805061 C201.99840798 98.68240293 202.01004334 96.400211 201.93652344 93.99047852 C201.94102005 93.09230408 201.94551666 92.19412964 201.95014954 91.26873779 C201.95645902 88.30415209 201.90734388 85.34306657 201.859375 82.37890625 C201.85673618 80.31534443 201.85819901 78.25177364 201.86358643 76.18821716 C201.86936632 70.7566682 201.83089485 65.3264204 201.77972412 59.8951416 C201.7022249 51.20599846 201.67826606 42.51694932 201.6798172 33.82749748 C201.67198071 30.79481495 201.63713117 27.76329117 201.59954834 24.73085022 C201.59246982 22.8668754 201.58625907 21.00289701 201.58105469 19.13891602 C201.56345596 18.29872421 201.54585724 17.45853241 201.52772522 16.59288025 C201.54380217 11.23598553 202.47314084 8.26729342 206 4 C209.81930172 0.37166337 212.88279006 -0.31000458 218 -0.5 C223.11720994 -0.31000458 226.18069828 0.37166337 230 4 C235.16855814 10.56546575 235.14940222 16.34088869 235.14526367 24.3449707 C235.15030159 25.74593491 235.15030159 25.74593491 235.15544128 27.17520142 C235.16492973 30.25874161 235.16689339 33.34222737 235.16796875 36.42578125 C235.17118297 38.57423423 235.17454717 40.722687 235.17805481 42.87113953 C235.18404094 47.37430326 235.18589526 51.87744781 235.18530273 56.38061523 C235.18520118 62.14056814 235.19884846 67.90039757 235.21607494 73.66032124 C235.22721391 78.09822653 235.22922135 82.53610216 235.22869301 86.97402 C235.22987045 89.09701144 235.23427896 91.22000371 235.24202538 93.34298134 C235.25186273 96.31768978 235.24893231 99.29213265 235.24291992 102.2668457 C235.24853943 103.13724991 235.25415894 104.00765411 235.25994873 104.9044342 C235.22318642 112.0907822 234.71538938 119.01756792 229.5953064 124.55645752 C226.34045476 127.50167018 222.71557481 129.87300839 219.05078125 132.2734375 C218.19695358 132.84204498 217.34312592 133.41065247 216.46342468 133.99649048 C214.66854981 135.1890642 212.87070285 136.37717565 211.07006836 137.56103516 C208.30446259 139.38028711 205.54912292 141.21432048 202.79492188 143.05078125 C201.04745567 144.20920974 199.29942829 145.36679225 197.55078125 146.5234375 C196.7237117 147.07333344 195.89664215 147.62322937 195.04450989 148.18978882 C194.27999008 148.69096222 193.51547028 149.19213562 192.7277832 149.70849609 C192.05447464 150.15228607 191.38116608 150.59607605 190.68745422 151.05331421 C189 152 189 152 187 152 C186.88785156 153.2375 186.88785156 153.2375 186.7734375 154.5 C185.6443077 164.41863036 182.77482322 172.81938375 179 182 C178.33257634 183.66636367 177.66556313 185.33289234 177 187 C178.44632812 188.01320312 178.44632812 188.01320312 179.921875 189.046875 C181.19806102 189.94771219 182.47409467 190.84876528 183.75 191.75 C184.38421875 192.1934375 185.0184375 192.636875 185.671875 193.09375 C189.09603123 195.519194 192.02698405 198.02698405 195 201 C195.66 201 196.32 201 197 201 C198.20175934 199.61425596 198.20175934 199.61425596 199.35083008 197.75878906 C199.8150386 197.05095276 200.27924713 196.34311646 200.75752258 195.61383057 C201.25648544 194.83892273 201.7554483 194.06401489 202.26953125 193.265625 C203.33395523 191.64321005 204.39840932 190.02081485 205.46289062 188.3984375 C207.13719576 185.82801503 208.80872523 183.25581618 210.47875977 180.68261719 C212.08968199 178.20574373 213.71046632 175.73553903 215.33203125 173.265625 C216.0713665 172.11540863 216.0713665 172.11540863 216.82563782 170.94195557 C219.90553279 166.25743227 222.86612029 162.56693985 228 160 C230.86668032 159.88575305 233.70961378 159.83213752 236.57714844 159.82299805 C237.46513123 159.81642685 238.35311401 159.80985565 239.26800537 159.80308533 C242.21512939 159.78332857 245.16220237 159.77168393 248.109375 159.76171875 C249.11504768 159.75764322 250.12072037 159.7535677 251.15686798 159.74936867 C256.48055314 159.72849695 261.80421244 159.71420047 267.12792969 159.70483398 C272.62710403 159.69377231 278.12587341 159.65937819 283.62490463 159.61966228 C287.85256706 159.59351499 292.08013278 159.58514377 296.30786896 159.58155251 C298.33484886 159.57668102 300.36182428 159.56505108 302.38872528 159.54651451 C305.22790064 159.52216533 308.06602561 159.52308054 310.90527344 159.5300293 C311.74082764 159.51721924 312.57638184 159.50440918 313.43725586 159.49121094 C318.76520239 159.53867494 321.76897299 160.47472056 326 164 C329.46909068 168.21916433 330.90714902 171.52179247 331 177 C330.12471615 181.88980687 328.78888497 185.73387451 324.9375 189 C320.40573432 192.08545748 318.55862817 192.03174805 313.06958008 191.64990234 C273.68148843 186.90032477 273.68148843 186.90032477 237.08837891 196.41357422 C228.13501627 204.37245748 222.46774925 216.38729075 220 228 C220.57699923 231.08547475 221.68867193 233.59416802 223.109375 236.38671875 C228.10254026 246.40539211 232.33368536 256.07775481 235.16015625 266.921875 C235.68602112 269.85136969 235.68602112 269.85136969 237 271 C239.29077187 270.51096097 241.52220912 269.95820277 243.78125 269.34765625 C245.19524173 268.97954574 246.60930674 268.61171667 248.0234375 268.24414062 C250.2514576 267.65785807 252.47848776 267.06825455 254.70410156 266.47290039 C274.95610872 261.07856814 274.95610872 261.07856814 283.97560692 265.77775955 C287.13564471 267.68565286 289.60995 270.05932119 292.18481445 272.68310547 C293.02789909 273.51808563 293.02789909 273.51808563 293.88801575 274.36993408 C295.72310635 276.19262796 297.54342931 278.02928852 299.36328125 279.8671875 C300.64437762 281.1481287 301.92614245 282.42840167 303.20854187 283.70803833 C305.88509422 286.38321085 308.55457835 289.06518224 311.21899414 291.75244141 C314.62777692 295.18965023 318.05194805 298.61102506 321.48132038 302.02767754 C324.12669873 304.66608978 326.76463873 307.31183803 329.40032005 309.95993423 C330.66010543 311.22422196 331.92196768 312.48644384 333.1859684 313.74651718 C334.95217328 315.50979968 336.70833049 317.2825227 338.4621582 319.05810547 C339.24064117 319.82983597 339.24064117 319.82983597 340.03485107 320.61715698 C344.37800102 325.04981747 347.4169726 329.54416069 347.5 335.875 C347.32034873 341.28903612 345.61167412 344.99449972 342 349 C337.51966756 352.41358662 333.11943142 352.35217505 327.68359375 352.3984375 C322.1509952 351.57700365 318.72870851 347.95214132 314.96948242 344.05371094 C314.4939241 343.56398804 314.01836578 343.07426514 313.52839661 342.56970215 C312.50222015 341.51262262 311.47817897 340.45346684 310.45607567 339.39244843 C308.83515727 337.71333428 307.20495713 336.0437963 305.57136536 334.37701416 C300.92906135 329.64033448 296.29084983 324.90019766 291.69116211 320.12207031 C288.87140996 317.1943333 286.03009681 314.28911402 283.17342567 311.39740753 C282.09151195 310.29387779 281.01783307 309.18221032 279.95281029 308.0623703 C274.63751463 301.97550457 274.63751463 301.97550457 267.68309021 298.52268982 C265.29510882 298.70992684 265.29510882 298.70992684 262 300 C261.11014404 300.18892822 260.22028809 300.37785645 259.3034668 300.57250977 C258.52656494 300.77674561 257.74966309 300.98098145 256.94921875 301.19140625 C256.08619141 301.41376953 255.22316406 301.63613281 254.33398438 301.86523438 C253.02397461 302.21038086 253.02397461 302.21038086 251.6875 302.5625 C249.9214198 303.02537878 248.15452292 303.48515581 246.38671875 303.94140625 C245.61545654 304.14451416 244.84419434 304.34762207 244.04956055 304.55688477 C242 305 242 305 239 305 C238.97421875 305.79019531 238.9484375 306.58039063 238.921875 307.39453125 C238.19270227 321.89512526 235.24489635 335.79616835 229.953125 349.3125 C228.83287358 351.99599022 228.83287358 351.99599022 229 355 C230.66495042 356.52754106 230.66495042 356.52754106 232.92797852 357.9074707 C234.21545738 358.7489843 234.21545738 358.7489843 235.52894592 359.60749817 C236.46943283 360.20753159 237.40991974 360.807565 238.37890625 361.42578125 C239.33893051 362.05099167 240.29895477 362.67620209 241.28807068 363.32035828 C244.3732174 365.32769799 247.4671821 367.32088677 250.5625 369.3125 C253.63158547 371.29520485 256.69860356 373.28094197 259.76194763 375.27250671 C261.6704846 376.51248662 263.58248973 377.74714982 265.49842834 378.97566223 C268.02660305 380.61385188 270.52256869 382.2861777 273 384 C274.03469925 384.71378311 274.03469925 384.71378311 275.09030151 385.44198608 C279.99708066 389.18033549 281.99897768 392.92574373 283 399 C283.38708402 403.9411338 283.39923577 408.86381529 283.36328125 413.81640625 C283.36276137 415.24169413 283.363284 416.66698272 283.36479187 418.0922699 C283.36470265 421.06512291 283.35437479 424.03770195 283.33618164 427.01049805 C283.31347546 430.80192032 283.31295955 434.59294402 283.31969929 438.38441563 C283.32305615 441.32284526 283.31637735 444.26118567 283.30657005 447.19959831 C283.30274888 448.59689809 283.30155689 449.99420783 283.3031559 451.39151192 C283.30675939 470.21611864 283.30675939 470.21611864 278.625 475.375 C274.59012189 479.40987811 271.81588859 480.30259684 266.125 480.375 C260.91733093 480.27363418 257.89419367 479.69948398 254 476 C251.2162489 473.05048328 250.06326949 471.37104899 249.87432861 467.27670288 C250.07408128 463.82284923 250.39041212 460.39244099 250.7265625 456.94921875 C253.93210139 428.90748206 253.93210139 428.90748206 245.27294922 403.68359375 C237.32287747 395.82472343 220.71140725 384 209 384 C207.49950064 385.48361694 207.49950064 385.48361694 205.9375 387.4375 C184.80855296 412.06633398 155.26694991 427.95374342 123 432 C105.18715277 432.87235303 87.1912587 433.22000046 70 428 C69.35160156 427.81808105 68.70320312 427.63616211 68.03515625 427.44873047 C42.82997528 420.35501882 21.69225695 404.96444265 4 386 C3.67 385.34 3.34 384.68 3 384 C-1.73857624 385.60945728 -5.53966111 388.2107192 -9.63671875 391.0078125 C-10.35737015 391.49329559 -11.07802155 391.97877869 -11.82051086 392.47897339 C-14.11253315 394.02322401 -16.40046844 395.57336925 -18.6875 397.125 C-21.70874288 399.17450917 -24.73393028 401.21798958 -27.76171875 403.2578125 C-28.45754562 403.73276154 -29.1533725 404.20771057 -29.87028503 404.697052 C-34.77442895 408 -34.77442895 408 -37 408 C-36.99555878 408.68380737 -36.99111755 409.36761475 -36.98654175 410.07214355 C-36.94218264 417.21018375 -36.91208133 424.34818457 -36.89013672 431.48632812 C-36.88123255 434.14786548 -36.86646743 436.80918615 -36.84912109 439.47070312 C-36.82477279 443.30341302 -36.81349379 447.13597668 -36.8046875 450.96875 C-36.78920364 452.74421204 -36.78920364 452.74421204 -36.77340698 454.55554199 C-36.77128419 470.3021157 -36.77128419 470.3021157 -41.375 475.375 C-45.40987811 479.40987811 -48.18411141 480.30259684 -53.875 480.375 C-59.08266907 480.27363418 -62.10580633 479.69948398 -66 476 C-69.67610531 471.36868623 -70.50338797 468.31761243 -70.51757812 462.4375 C-70.5245874 461.70499023 -70.53159668 460.97248047 -70.53881836 460.21777344 C-70.55633397 457.81145618 -70.54479954 455.40632791 -70.53125 453 C-70.53394679 451.31900814 -70.53783077 449.63801779 -70.54284668 447.95703125 C-70.54873298 444.43995257 -70.54020709 440.9232812 -70.52148438 437.40625 C-70.49869501 432.90697811 -70.5118228 428.40866073 -70.53577423 423.90942383 C-70.55025591 420.44003153 -70.54561544 416.97086406 -70.53526306 413.50146484 C-70.53260231 411.84293504 -70.53584257 410.18438456 -70.54518127 408.52587891 C-70.55538646 406.20420579 -70.53979279 403.88405989 -70.51757812 401.5625 C-70.51439575 400.24378906 -70.51121338 398.92507813 -70.50793457 397.56640625 C-69.7942316 392.55522003 -67.63243541 389.4572814 -63.89526367 386.12109375 C-63.09838135 385.56550781 -62.30149902 385.00992187 -61.48046875 384.4375 C-60.51157715 383.76074219 -59.54268555 383.08398438 -58.54443359 382.38671875 C-57.36485011 381.58833976 -56.18317912 380.79304059 -55 380 C-54.29361389 379.52643066 -53.58722778 379.05286133 -52.85943604 378.56494141 C-47.03376118 374.67429473 -41.174999 370.83483083 -35.3125 367 C-33.53173706 365.83228128 -31.7511368 364.66431443 -29.97070312 363.49609375 C-25.64900476 360.66119972 -21.32512186 357.82966788 -17 355 C-17.70516905 350.44508602 -18.81858195 346.40632129 -20.375 342.0625 C-24.55225512 329.92404763 -26.42832848 317.79361428 -27 305 C-27.6084375 304.90203125 -28.216875 304.8040625 -28.84375 304.703125 C-35.51091758 303.56578465 -42.00420664 302.04790553 -48.515625 300.23339844 C-52.08047412 299.28593607 -54.54420705 298.63169653 -58 300 C-60.36293225 301.94749137 -60.36293225 301.94749137 -62.74926758 304.45629883 C-63.20677902 304.91819107 -63.66429047 305.38008331 -64.13566589 305.85597229 C-65.12659102 306.85829738 -66.11403553 307.86407284 -67.09836769 308.87287331 C-68.66035006 310.47323878 -70.23159484 312.06396288 -71.80558777 313.6525116 C-75.71500038 317.60199068 -79.60807562 321.56744915 -83.50152588 325.53265381 C-86.78970928 328.88024712 -90.08410685 332.22148865 -93.38687706 335.55469322 C-94.92795975 337.11509531 -96.45965119 338.68431854 -97.99116516 340.25410461 C-108.77694023 351.21107675 -108.77694023 351.21107675 -115.84375 352.53125 C-122.10446464 352.45759453 -126.03793555 351.94939823 -131 348 C-134.58967947 343.39784683 -135.84475779 339.52033133 -135.46524048 333.65666199 C-133.74142136 323.81314034 -123.45718102 316.00098294 -116.6640625 309.23046875 C-115.45832645 308.02016226 -114.25295989 306.80948759 -113.04794312 305.59846497 C-110.53304484 303.07467898 -108.01261614 300.55658231 -105.48828125 298.04223633 C-102.26651006 294.8319791 -99.0609173 291.60609049 -95.85950661 288.37554455 C-93.37859476 285.87622769 -90.88837376 283.38635027 -88.39539719 280.89907265 C-87.20987758 279.71370556 -86.0274231 278.52526414 -84.84822464 277.33360863 C-71.30673369 263.66922356 -71.30673369 263.66922356 -62.03515625 262.5 C-54.70503809 262.85272749 -47.5040037 265.14035271 -40.4375 267 C-38.93710301 267.3864045 -37.43645345 267.77182963 -35.93554688 268.15625 C-32.28735279 269.09289391 -28.64283857 270.04274846 -25 271 C-24.8146167 270.43877441 -24.6292334 269.87754883 -24.43823242 269.29931641 C-20.59397726 257.70684617 -16.76034746 246.48434315 -10.45239258 235.96044922 C-8.18681137 232.03110745 -7.87063509 230.31249942 -9 226 C-9.30067383 224.81825195 -9.60134766 223.63650391 -9.91113281 222.41894531 C-13.10849552 211.6395368 -18.28632854 200.83739577 -27.84887695 194.44024658 C-46.94681897 185.71137586 -75.75977212 190.39203569 -96.14312744 191.76329041 C-96.89692059 191.80682522 -97.65071373 191.85036003 -98.42734909 191.89521408 C-100.4536261 192.01368178 -102.47856573 192.15443971 -104.5032959 192.29692078 C-109.84550747 191.84328971 -112.77045739 189.29425537 -116.375 185.5 C-118.77303575 180.33499991 -118.75381535 175.5997712 -118 170 C-115.69360974 165.0323902 -112.75878536 162.61355676 -108 160 C-104.9828479 159.44000178 -102.03093094 159.45252299 -98.96875 159.48242188 C-98.08018311 159.4754126 -97.19161621 159.46840332 -96.27612305 159.46118164 C-93.3504271 159.44363302 -90.42570511 159.45521331 -87.5 159.46875 C-85.46028458 159.46605419 -83.42057041 159.46217102 -81.38085938 159.45715332 C-77.11055235 159.45126251 -72.8405805 159.45980793 -68.5703125 159.47851562 C-63.10255249 159.50130474 -57.63557789 159.48817945 -52.16784668 159.46422577 C-47.95729681 159.44975663 -43.74693248 159.45437895 -39.53637695 159.46473694 C-37.52058824 159.46740113 -35.50478257 159.46414531 -33.48901367 159.45481873 C-30.66930663 159.44463489 -27.85086318 159.46017994 -25.03125 159.48242188 C-24.20197998 159.47432495 -23.37270996 159.46622803 -22.51831055 159.45788574 C-17.2144042 159.53521021 -14.22585016 160.51545067 -10 164 C-7.98046875 166.31567383 -7.98046875 166.31567383 -6.1875 168.89453125 C-5.51074219 169.86342285 -4.83398438 170.83231445 -4.13671875 171.83056641 C-0.3712716 177.41592232 3.33740746 183.03423082 7 188.6875 C7.78228232 189.89014947 8.56483313 191.09262434 9.34765625 192.29492188 C11.23485531 195.19461812 13.11846242 198.09662602 15 201 C17.72829934 199.71927089 20.03468135 198.31942161 22.3828125 196.43359375 C22.99253906 195.94826172 23.60226563 195.46292969 24.23046875 194.96289062 C24.85566406 194.45951172 25.48085937 193.95613281 26.125 193.4375 C32.76013514 188.11993243 32.76013514 188.11993243 35 187 C33.86709838 184.1622993 32.72447291 181.32990014 31.5625 178.50390625 C28.01611997 169.65480093 25.86570585 161.55261628 25 152 C24.349104 151.7831958 23.69820801 151.5663916 23.02758789 151.34301758 C18.88931898 149.50730939 15.30291149 147.04121372 11.55859375 144.51171875 C10.75390152 143.97150589 9.94920929 143.43129303 9.12013245 142.87471008 C7.42325167 141.7331231 5.72804876 140.58903866 4.03442383 139.44262695 C1.44900186 137.69527351 -1.14521005 135.9615658 -3.74023438 134.22851562 C-5.39117922 133.1154049 -7.0415881 132.00149874 -8.69140625 130.88671875 C-9.85090538 130.11457283 -9.85090538 130.11457283 -11.03382874 129.326828 C-15.67172046 126.16574144 -19.43194611 123.13610778 -22 118 C-22.10022691 116.56925641 -22.13938098 115.13399677 -22.14717102 113.69976807 C-22.15432632 112.79696106 -22.16148163 111.89415405 -22.16885376 110.96398926 C-22.17154266 109.97072632 -22.17423157 108.97746338 -22.17700195 107.95410156 C-22.18357315 106.91006165 -22.19014435 105.86602173 -22.19691467 104.79034424 C-22.216679 101.32377049 -22.22831742 97.85724013 -22.23828125 94.390625 C-22.24235678 93.20843132 -22.2464323 92.02623764 -22.25063133 90.80821991 C-22.27150568 84.55085931 -22.28580137 78.29352073 -22.29516602 72.03613281 C-22.30623179 65.56843944 -22.34063017 59.10108998 -22.38033772 52.63351822 C-22.40646784 47.66468663 -22.41485469 42.69593741 -22.41844749 37.72704315 C-22.42332294 35.34280831 -22.43496402 32.95857737 -22.45348549 30.57440948 C-22.47779886 27.23715382 -22.47692571 23.90079344 -22.4699707 20.56347656 C-22.48278076 19.57831055 -22.49559082 18.59314453 -22.50878906 17.578125 C-22.4653587 11.8609387 -21.85977686 8.51552937 -18 4 C-12.72867143 -1.00776214 -6.89190982 -0.92775709 0 0 Z " fill="#7ACFE6" transform="translate(150,16)"/>
<path d="M0 0 C5.67476113 1.96434039 9.31400331 5.62800662 12 11 C12.24276804 13.12348912 12.46925289 15.24885077 12.6875 17.375 C14.01923454 26.78399405 16.88087881 34.87564348 24.375 41.0625 C30.33129774 45.14256395 35.43377966 46.97523527 42.625 47.5 C47.78160096 47.87748598 51.67224495 48.62784635 55.43359375 52.4609375 C59.41221573 57.08199986 60.30594619 59.75895768 60.2109375 65.6875 C59.7649143 70.57723577 57.59434053 73.67415789 54 76.8125 C47.92298598 81.24365606 41.25053746 80.5158198 34 80 C15.97393024 76.6225244 0.60959426 66.42161763 -9.80859375 51.390625 C-17.27730593 39.5049325 -22.43157961 25.18700929 -20 11 C-15.05701409 2.32139635 -9.7245964 -0.88704089 0 0 Z " fill="#027EA7" transform="translate(212,304)"/>
</svg>
